<svg width="269" height="38" viewBox="0 0 269 38" fill="none" xmlns="http://www.w3.org/2000/svg">
<path fill-rule="evenodd" clip-rule="evenodd" d="M19.6524 9.49623C16.798 11.9729 13.5468 13.8154 10.0742 15.2999L22.4533 23.9682L21.7588 24.2964L16.6301 20.9619C14.9587 19.8802 10.8222 20.6337 9.98267 22.0063L19.515 28.5261C22.1557 26.0494 25.3764 24.0801 29.139 22.5807L16.6149 14.0541L17.2789 13.5469L21.3314 16.3816C23.3539 17.7989 24.9643 18.1719 29.3221 16.0757L19.6524 9.48877V9.49623Z" fill="#9D9FA2"/>
<path d="M39.0605 14.2554H44.4793L46.0743 19.7831H46.0972L47.6923 14.2554H53.111V23.7666H49.6156V16.9707H49.5927L47.5473 23.7666H44.6243L42.5789 16.9707H42.5484V23.7666H39.0605V14.2554Z" fill="#2D3494"/>
<path d="M60.125 17.1348H60.0944L58.9496 20.3575H61.2698L60.125 17.1348ZM57.7438 14.2554H62.4604L66.6122 23.7666H62.5214L62.1169 22.6774H58.1025L57.6904 23.7666H53.5996L57.7438 14.2554Z" fill="#2D3494"/>
<path d="M79.8765 14.2554H83.723V20.0143C83.723 21.2377 84.448 21.6256 85.6997 21.6256C86.9513 21.6256 87.6764 21.2377 87.6764 20.0143V14.2554H91.5229V20.156C91.5229 23.1772 89.653 24.1023 85.6997 24.1023C81.7463 24.1023 79.8765 23.1847 79.8765 20.156V14.2554Z" fill="#2D3494"/>
<path d="M95.8653 16.65H92.3088V14.2554H103.276V16.65H99.7119V23.7666H95.8653V16.65Z" fill="#2D3494"/>
<path d="M107.931 14.2554H104.085V23.7666H107.931V14.2554Z" fill="#2D3494"/>
<path d="M70.8553 16.65H73.5265C74.1676 16.65 74.6484 16.8215 74.6484 17.5451C74.6484 18.1419 74.3355 18.4403 73.5876 18.4403H70.8553V16.6574V16.65ZM79.6626 23.7666L76.3885 20.7901C79.0826 20.3724 78.7392 17.7913 78.7392 16.9036C78.7392 15.8667 78.1362 14.9417 77.4188 14.5985C76.8846 14.3449 76.2206 14.2554 75.114 14.2554H67.0088V23.7666H70.8553V20.8349H71.5269L74.7476 23.7666H79.6626Z" fill="#2D3494"/>
<path d="M120.177 19.6628C118.291 19.3774 117.496 18.3233 117.496 16.9838C117.496 14.503 120.005 13.853 123.187 13.853C127.582 13.853 129.378 14.9468 129.509 16.9838H124.991C124.991 16.5796 124.737 16.3735 124.409 16.215C124.073 16.0565 123.613 16.0089 123.195 16.0089C122.022 16.0089 121.645 16.2942 121.645 16.6985C121.645 16.9838 121.768 17.1423 122.145 17.1819L126.787 17.8319C128.755 18.1172 129.968 19.0129 129.968 20.5901C129.968 22.9045 128 23.9983 123.646 23.9983C120.678 23.9983 117.414 23.5941 117.365 20.7883H122.055C122.055 21.1132 122.178 21.3193 122.473 21.4778C122.769 21.5967 123.187 21.6839 123.81 21.6839C125.024 21.6839 125.36 21.3589 125.36 20.9151C125.36 20.6298 125.196 20.3444 124.647 20.2652L120.169 19.6549L120.177 19.6628Z" fill="#2D3494"/>
<path d="M131.201 14.2559H135.048V20.0148C135.048 21.2382 135.773 21.6261 137.025 21.6261C138.276 21.6261 139.001 21.2382 139.001 20.0148V14.2559H142.848V20.1565C142.848 23.1777 140.978 24.1027 137.025 24.1027C133.071 24.1027 131.194 23.1852 131.194 20.1565V14.2559H131.201Z" fill="#2D3494"/>
<path d="M143.886 21.7529L149.724 16.6504H144.283V14.2559H154.907V16.3297L149.205 21.3725H154.762V23.7671H143.886V21.7529Z" fill="#2D3494"/>
<path d="M156.295 14.2559H160.142V20.0148C160.142 21.2382 160.867 21.6261 162.119 21.6261C163.37 21.6261 164.095 21.2382 164.095 20.0148V14.2559H167.942V20.1565C167.942 23.1777 166.072 24.1027 162.119 24.1027C158.165 24.1027 156.288 23.1852 156.288 20.1565V14.2559H156.295Z" fill="#2D3494"/>
<path d="M186.541 14.2559H182.695V23.7671H186.541V14.2559Z" fill="#2D3494"/>
<path fill-rule="evenodd" clip-rule="evenodd" d="M169.27 23.7671H173.017L172.941 20.3579L176.688 23.7671H181.603L176.261 18.9107L181.886 14.2559H177.207L173.017 17.5531V14.2559H169.27V23.7671Z" fill="#2D3494"/>
<path d="M223.549 22.6252V19.3877H231.234V18.2538H223.549V15.3967H232.226V14.2554H222.228V23.7666H232.318V22.6252H223.549Z" fill="#2D3494"/>
<path d="M252.642 14.2554H251.596L245.353 23.7666H246.925L248.772 20.9319H255.351L257.16 23.7666H258.702L252.657 14.2554H252.642ZM254.619 19.7905H249.528L252.123 15.8741L254.619 19.7905Z" fill="#2D3494"/>
<path d="M203.576 14.2554H202.53L196.287 23.7666H197.859L199.706 20.9319H206.285L208.094 23.7666H209.635L203.591 14.2554H203.576ZM205.545 19.7905H200.454L203.049 15.8741L205.545 19.7905Z" fill="#2D3494"/>
<path d="M243.506 14.2554V21.9911C242.583 21.1706 241.14 19.9322 239.209 18.2986C237.233 16.6127 235.699 15.2699 234.638 14.3001L234.592 14.2554H233.363V23.7666H234.691V16.001L243.598 23.7666H244.842V14.2554H243.514H243.506Z" fill="#2D3494"/>
<path d="M218.481 19.522C218.71 19.4623 218.916 19.4026 219.092 19.3355C220.351 18.873 220.992 18.1121 220.992 17.0677C220.992 15.2028 219.374 14.2554 216.191 14.2554H210.132V23.7666H211.46V19.8204H215.978C216.329 19.8204 216.68 19.8054 217.077 19.7681L219.649 23.774H221.19L218.473 19.5294L218.481 19.522ZM218.55 18.3135C217.939 18.5597 217.184 18.679 216.321 18.679H211.475V15.3967H216.314C218.557 15.3967 219.641 15.9487 219.641 17.0901C219.641 17.6272 219.282 18.03 218.557 18.3209" fill="#2D3494"/>
</svg>
